<?xml version="1.0" standalone="no"?>
<!DOCTYPE svg PUBLIC "-//W3C//DTD SVG 20010904//EN"
 "http://www.w3.org/TR/2001/REC-SVG-20010904/DTD/svg10.dtd">
<svg version="1.0" xmlns="http://www.w3.org/2000/svg"
 width="816.000000pt" height="189.000000pt" viewBox="0 0 816.000000 189.000000"
 preserveAspectRatio="xMidYMid meet">

<g transform="translate(0.000000,189.000000) scale(0.100000,-0.100000)"
fill="#000000" stroke="none">
<path d="M1245 1756 c-280 -53 -503 -262 -586 -548 -27 -94 -37 -295 -17 -352
21 -63 55 -81 152 -81 75 0 89 3 161 39 92 45 165 110 206 181 34 59 36 72 9
80 -11 3 -20 10 -20 14 0 10 219 156 224 150 5 -7 54 -264 51 -267 -2 -2 -14
2 -26 9 -20 10 -25 9 -38 -12 -30 -50 -209 -215 -271 -252 -92 -53 -189 -81
-280 -81 -90 1 -140 23 -193 85 -46 53 -61 117 -54 223 5 74 4 79 -10 61 -55
-74 -89 -195 -79 -283 27 -229 281 -313 581 -193 167 67 358 223 465 381 48
71 127 232 136 279 6 29 4 31 -25 37 -17 4 -31 9 -31 13 0 6 228 224 239 228
3 2 31 -66 61 -149 30 -84 57 -156 59 -161 2 -6 -11 -7 -31 -3 l-35 6 -38 -89
c-70 -169 -181 -330 -307 -446 -236 -218 -598 -331 -869 -269 -129 29 -229
119 -264 238 -19 64 -18 125 4 209 9 37 16 67 15 67 -8 0 -66 -115 -83 -167
-26 -76 -28 -180 -5 -247 39 -114 183 -218 350 -252 96 -20 297 -14 389 11 55
16 66 16 161 0 358 -59 694 147 815 497 96 280 47 561 -136 789 -160 199 -435
302 -680 255z"/>
<path d="M2952 1532 c-165 -59 -217 -267 -97 -387 62 -62 144 -79 268 -54 l57
12 0 81 c0 44 3 91 6 104 6 20 3 22 -40 22 l-45 0 6 -79 c6 -87 10 -83 -67
-96 -61 -11 -124 25 -158 90 -8 17 -16 56 -16 90 -1 70 26 125 78 156 38 23
122 25 171 5 l35 -15 0 33 c0 39 -9 45 -89 52 -40 3 -71 -1 -109 -14z"/>
<path d="M3679 1541 c-45 -14 -68 -31 -84 -61 -35 -67 -8 -127 83 -189 61 -41
72 -56 72 -95 0 -58 -96 -82 -144 -37 l-26 24 0 -42 c0 -35 4 -43 26 -51 60
-23 149 -5 188 39 24 26 32 107 14 141 -7 13 -33 39 -58 57 -103 76 -119 104
-80 143 24 24 76 26 107 5 19 -13 21 -13 26 6 14 55 -45 83 -124 60z"/>
<path d="M4930 1350 c-52 -110 -104 -212 -116 -227 l-21 -27 -34 38 c-44 50
-119 149 -119 158 0 4 8 9 18 12 39 13 65 54 65 100 0 90 -64 135 -191 136
-69 0 -73 -1 -67 -20 9 -27 9 -381 1 -408 -7 -21 -4 -22 42 -22 l49 0 -9 50
c-5 28 -8 74 -6 102 l3 50 33 -45 c18 -25 55 -71 83 -101 l51 -56 93 0 92 0 6
33 c3 18 12 50 21 70 l15 37 84 0 85 0 15 -37 c8 -21 18 -53 22 -70 6 -32 9
-33 54 -33 l48 0 -56 113 c-31 61 -82 165 -112 229 l-55 118 -94 -200z m-335
136 c79 -33 72 -135 -12 -167 -13 -5 -29 -9 -34 -9 -5 0 -9 43 -9 95 0 59 4
95 10 95 6 0 26 -6 45 -14z m459 -137 c14 -33 26 -62 26 -65 0 -2 -25 -4 -55
-4 -37 0 -55 4 -55 12 0 19 43 118 51 118 3 0 18 -27 33 -61z"/>
<path d="M5463 1539 c-62 -15 -137 -86 -158 -150 -65 -194 107 -360 304 -294
48 16 51 19 51 51 0 19 -2 34 -4 34 -3 0 -20 -9 -38 -19 -93 -54 -189 -26
-238 69 -7 13 -13 49 -13 80 0 68 31 131 79 160 38 24 127 26 164 5 14 -8 28
-14 33 -15 14 0 7 68 -7 73 -31 12 -133 15 -173 6z"/>
<path d="M3265 1315 l0 -225 41 0 40 0 -4 90 -4 90 27 0 c49 0 106 23 131 53
18 22 24 40 24 78 0 101 -50 139 -183 139 l-72 0 0 -225z m163 149 c48 -55 17
-144 -55 -159 l-33 -7 0 102 0 103 33 -7 c17 -3 42 -17 55 -32z"/>
<path d="M4062 1504 c-10 -34 -10 -36 11 -30 12 4 45 9 74 13 l52 6 -3 -184
c-2 -101 -6 -192 -11 -201 -6 -16 -1 -18 45 -18 46 0 51 2 44 18 -4 9 -9 99
-12 200 l-4 182 29 0 c17 0 44 -5 62 -11 37 -13 37 -14 46 29 l7 32 -165 0
-164 0 -11 -36z"/>
<path d="M5722 1494 c6 -26 9 -127 6 -225 l-3 -179 40 0 40 0 -3 82 c-2 46 -2
96 0 113 3 28 6 26 74 -60 39 -50 76 -100 83 -112 10 -20 20 -23 66 -23 l55 0
-78 93 c-42 50 -88 107 -101 125 l-23 33 38 47 c20 26 60 71 88 100 l50 52
-51 0 -51 0 -46 -62 c-25 -35 -59 -79 -76 -98 l-31 -35 3 98 4 97 -47 0 -47 0
10 -46z"/>
<path d="M6141 1493 c10 -63 10 -307 0 -360 l-8 -43 122 0 122 0 16 41 c13 33
14 40 2 35 -34 -13 -94 -25 -135 -28 l-45 -3 0 72 c0 40 5 76 10 81 6 6 28 5
56 -2 46 -12 47 -12 63 15 9 15 16 30 16 33 0 3 -31 6 -70 6 -38 0 -70 3 -71
8 -5 36 -3 125 2 134 7 11 78 7 111 -7 12 -5 21 2 32 24 9 16 16 32 16 36 0 3
-56 5 -123 5 l-124 0 8 -47z"/>
<path d="M6471 1504 c11 -49 11 -314 0 -371 l-8 -43 48 0 49 0 -5 38 c-4 20
-7 66 -9 102 l-3 64 26 -34 c14 -19 52 -65 84 -102 56 -65 60 -68 103 -68 l46
0 -47 52 c-47 53 -105 131 -105 143 0 3 18 23 40 44 45 42 51 79 25 135 -24
50 -67 69 -167 74 l-86 4 9 -38z m139 -26 c41 -28 52 -64 34 -106 -16 -39 -80
-75 -93 -53 -7 11 -8 133 -2 174 2 13 28 7 61 -15z"/>
<path d="M7014 1511 l28 -30 -4 -195 -4 -196 44 0 c37 0 43 3 38 18 -10 36
-17 199 -9 241 l8 44 72 -87 71 -86 77 97 77 98 -4 -163 -3 -162 40 0 40 0 -3
183 c-3 151 -1 190 12 221 9 21 16 40 16 42 0 2 -19 4 -42 4 -39 0 -46 -4 -67
-38 -34 -53 -132 -172 -141 -172 -10 0 -160 188 -160 201 0 5 -26 9 -57 9
l-57 0 28 -29z"/>
<path d="M7567 1518 c12 -13 46 -63 77 -111 l57 -88 -22 -37 c-12 -20 -46 -72
-76 -115 l-53 -78 52 3 c47 3 52 5 59 31 4 15 22 51 40 79 l33 51 23 -29 c13
-16 33 -53 45 -81 l22 -53 55 0 54 0 -20 23 c-27 29 -133 198 -133 211 0 6 31
57 70 114 l69 102 -47 0 -47 0 -27 -58 c-15 -31 -35 -66 -44 -77 l-15 -20 -15
20 c-9 11 -27 46 -42 77 l-27 58 -54 0 -54 0 20 -22z"/>
<path d="M3150 897 c0 -1 35 -101 79 -222 l78 -220 49 -3 49 -3 54 148 c29 81
66 183 82 226 l28 77 -49 0 -49 0 -53 -160 c-29 -88 -55 -160 -58 -160 -3 0
-30 72 -59 160 l-55 160 -48 0 c-26 0 -48 -1 -48 -3z"/>
<path d="M6730 860 l0 -40 45 0 45 0 0 40 0 40 -45 0 -45 0 0 -40z"/>
<path d="M6563 862 c-38 -21 -43 -28 -43 -58 0 -27 -4 -34 -20 -34 -16 0 -20
-7 -20 -30 0 -23 4 -30 20 -30 18 0 20 -7 20 -87 0 -122 12 -160 53 -171 18
-5 47 -7 65 -4 29 4 32 8 32 37 0 29 -4 34 -27 37 l-28 3 -3 93 -3 92 31 0
c27 0 30 3 30 30 0 27 -3 30 -30 30 -28 0 -29 1 -32 58 l-3 57 -42 -23z"/>
<path d="M7723 873 c-34 -7 -73 -59 -73 -98 0 -44 41 -92 84 -101 46 -8 94 18
112 63 33 78 -35 154 -123 136z m88 -42 c37 -38 38 -79 3 -115 -55 -55 -144
-18 -144 59 0 79 84 112 141 56z"/>
<path d="M7710 775 c0 -30 5 -55 10 -55 6 0 10 11 10 25 0 14 4 25 10 25 5 0
17 -11 26 -25 9 -14 23 -25 30 -25 12 0 11 5 -2 25 -13 20 -14 28 -4 40 21 26
4 45 -40 45 l-40 0 0 -55z m60 25 c0 -5 -9 -10 -20 -10 -11 0 -20 5 -20 10 0
6 9 10 20 10 11 0 20 -4 20 -10z"/>
<path d="M3625 768 c-25 -13 -54 -49 -55 -65 0 -7 15 -15 34 -18 27 -6 39 -2
55 14 25 25 63 27 85 5 24 -23 19 -43 -11 -50 -82 -18 -136 -37 -153 -54 -24
-24 -27 -86 -5 -117 30 -43 126 -49 172 -11 12 10 17 9 24 -5 7 -12 23 -17 51
-17 34 0 39 2 32 18 -4 9 -9 67 -11 127 -5 146 -7 154 -48 171 -40 17 -141 18
-170 2z m135 -196 c0 -52 -62 -85 -100 -54 -43 35 -2 78 78 81 18 1 22 -4 22
-27z"/>
<path d="M4038 761 c-31 -25 -38 -26 -38 -6 0 11 -11 15 -40 15 l-40 0 0 -160
0 -160 45 0 45 0 0 110 c0 104 1 112 25 135 29 30 46 31 68 7 14 -15 17 -41
17 -135 l0 -117 45 0 45 0 0 113 c0 107 1 115 24 136 13 13 32 21 42 19 32 -6
44 -47 44 -160 l0 -108 40 0 40 0 0 136 0 136 -29 29 c-36 36 -90 39 -140 8
-31 -19 -34 -19 -52 -3 -10 9 -40 19 -66 21 -38 4 -53 1 -75 -16z"/>
<path d="M4550 758 c-78 -54 -101 -144 -58 -228 51 -100 207 -113 277 -24 65
83 40 212 -49 256 -51 26 -129 23 -170 -4z m130 -58 c42 -22 50 -129 12 -163
-33 -30 -66 -31 -100 -2 -28 23 -32 33 -32 75 0 81 57 124 120 90z"/>
<path d="M4908 765 c-34 -19 -48 -44 -48 -88 0 -47 30 -72 119 -96 41 -11 76
-23 78 -25 3 -2 2 -14 -2 -25 -10 -31 -86 -30 -112 2 -14 17 -26 21 -55 19
-47 -4 -50 -26 -10 -65 36 -35 107 -50 170 -36 58 12 91 42 98 91 9 54 -24 84
-121 111 -65 19 -80 26 -80 42 0 29 74 34 98 7 12 -13 26 -17 52 -14 43 5 46
28 9 63 -21 20 -37 24 -97 26 -51 2 -80 -1 -99 -12z"/>
<path d="M5452 760 c-48 -30 -76 -98 -69 -169 10 -93 62 -142 150 -143 68 -1
115 23 139 72 20 39 12 50 -39 50 -23 0 -33 -5 -38 -21 -15 -47 -96 -43 -115
6 -16 43 -12 110 8 136 25 30 80 31 100 1 15 -23 55 -29 80 -13 22 14 -13 70
-53 87 -50 21 -124 18 -163 -6z"/>
<path d="M5810 758 c-78 -54 -101 -144 -58 -228 51 -100 207 -113 277 -24 65
83 41 208 -49 255 -50 27 -128 25 -170 -3z m140 -68 c25 -25 34 -61 26 -104
-21 -109 -156 -84 -156 28 0 59 29 96 76 96 21 0 42 -8 54 -20z"/>
<path d="M6248 756 c-36 -24 -38 -24 -38 -6 0 17 -7 20 -40 20 l-40 0 0 -160
0 -160 45 0 45 0 0 110 c0 104 1 112 25 135 25 26 50 31 74 16 18 -12 30 -80
31 -178 l0 -83 41 0 41 0 -4 140 c-4 164 -11 179 -95 187 -40 4 -54 0 -85 -21z"/>
<path d="M6961 767 c-57 -29 -88 -115 -70 -197 13 -60 34 -89 74 -106 49 -20
77 -17 119 11 l36 24 0 -32 c0 -51 -24 -77 -70 -77 -22 0 -42 6 -47 14 -4 7
-29 16 -55 20 -46 7 -48 6 -48 -16 0 -75 126 -114 231 -71 62 24 69 50 69 258
l0 175 -40 0 c-29 0 -40 -4 -40 -15 0 -12 -6 -11 -32 5 -37 23 -91 26 -127 7z
m112 -58 c62 -28 63 -147 2 -179 -37 -20 -74 -5 -92 37 -20 49 -11 102 22 131
30 25 35 26 68 11z"/>
<path d="M7347 758 c-85 -51 -104 -192 -34 -266 30 -32 112 -54 161 -42 81 18
129 79 129 164 0 101 -55 158 -158 164 -48 2 -67 -2 -98 -20z m142 -67 c45
-45 30 -150 -24 -171 -37 -14 -40 -13 -74 16 -27 22 -31 32 -31 74 0 63 28
100 76 100 20 0 42 -8 53 -19z"/>
<path d="M6730 610 l0 -160 45 0 45 0 0 160 0 160 -45 0 -45 0 0 -160z"/>
</g>
</svg>
