<?xml version="1.0" encoding="utf-8"?>
<!-- Generator: Adobe Illustrator 25.4.1, SVG Export Plug-In . SVG Version: 6.00 Build 0)  -->
<svg version="1.1" id="Capa_1" xmlns="http://www.w3.org/2000/svg" xmlns:xlink="http://www.w3.org/1999/xlink" x="0px" y="0px"
	 viewBox="0 0 80 80" style="enable-background:new 0 0 80 80;" xml:space="preserve">
<style type="text/css">
	.st0{fill:#DCDCDC;}
	.st1{fill:#747072;}
</style>
<g>
	<path class="st0" d="M68.9,80H11.1C5,80,0,75,0,68.9V11.1C0,5,5,0,11.1,0h57.8C75,0,80,5,80,11.1v57.8C80,75,75,80,68.9,80z"/>
	<g>
		<path class="st1" d="M60.8,26.7H19.2c-2.1,0-3.8-1.7-3.8-3.8v-2.4c0-2.1,1.7-3.8,3.8-3.8h41.7c2.1,0,3.8,1.7,3.8,3.8v2.4
			C64.7,25,63,26.7,60.8,26.7z"/>
		<g>
			<path class="st1" d="M49.8,17.3h-4.1c0-3.2-2.6-5.7-5.7-5.7s-5.7,2.6-5.7,5.7h-4.1c0-5.4,4.4-9.8,9.8-9.8S49.8,11.9,49.8,17.3z"
				/>
		</g>
		<path class="st1" d="M19.8,30.1v32.8c0,5.3,4.3,9.6,9.6,9.6h21.2c5.3,0,9.6-4.3,9.6-9.6V30.1H19.8z M30.4,63
			c0,1.1-0.9,2.1-2.1,2.1s-2.1-0.9-2.1-2.1V36.6c0-1.1,0.9-2.1,2.1-2.1s2.1,0.9,2.1,2.1V63z M42.1,63c0,1.1-0.9,2.1-2.1,2.1
			c-1.1,0-2.1-0.9-2.1-2.1V36.6c0-1.1,0.9-2.1,2.1-2.1c1.1,0,2.1,0.9,2.1,2.1V63z M53.8,63c0,1.1-0.9,2.1-2.1,2.1
			c-1.1,0-2.1-0.9-2.1-2.1V36.6c0-1.1,0.9-2.1,2.1-2.1c1.1,0,2.1,0.9,2.1,2.1V63z"/>
	</g>
</g>
</svg>
