<?xml version="1.0" encoding="utf-8"?>
<!-- Generator: Adobe Illustrator 25.4.1, SVG Export Plug-In . SVG Version: 6.00 Build 0)  -->
<svg version="1.1" id="Capa_1" xmlns="http://www.w3.org/2000/svg" xmlns:xlink="http://www.w3.org/1999/xlink" x="0px" y="0px"
	 viewBox="0 0 80 80" style="enable-background:new 0 0 80 80;" xml:space="preserve">
<style type="text/css">
	.st0{fill:#FDC321;}
	.st1{fill:#FFFFFF;}
</style>
<g>
	<path class="st0" d="M68.9,80H11.1C5,80,0,75,0,68.9V11.1C0,5,5,0,11.1,0h57.8C75,0,80,5,80,11.1v57.8C80,75,75,80,68.9,80z"/>
	<g>
		<path class="st1" d="M39.8,58.1c-13.5-0.2-24.1-6.5-33.2-16.2c-1.4-1.4-1-2.7,0.2-4c16.8-18.4,41-21.8,60.8-5.3
			c2.1,1.7,4.1,3.5,5.8,5.6c1,1.1,1.2,2.3,0.1,3.5C64.5,51.5,53.7,57.9,39.8,58.1z M54.1,40.1c0-7.9-6.1-14.2-13.9-14.3
			c-7.9-0.1-14.2,6.2-14.3,14c-0.1,8,6.2,14.4,14.1,14.4C47.7,54.2,54,47.9,54.1,40.1z M53.7,28.4c5.5,7.7,5.3,15.1,0.4,23
			c6.3-2.5,11-6.3,15.3-10.5c0.5-0.5,0.5-1,0-1.5C65,34.7,60,31.1,53.7,28.4z M26.2,51.6c-5.4-7.6-5.4-15.1-0.2-23.2
			c-6.2,2.8-11.1,6.3-15.3,10.6c-0.6,0.7-0.5,1.2,0.1,1.9C15.2,45.5,20.1,49,26.2,51.6z"/>
		<path class="st1" d="M30.9,39.4c0.1-2.8,1.6-5.6,4.7-7.3c2.9-1.6,6-1.6,8.9,0c1.1,0.6,2.2,1.3,0.5,2.6c-1,0.8-1.1,2-0.6,3.2
			c0.5,1.2,1.5,2,2.7,1.8c2.6-0.4,2,1.2,1.7,2.5c-0.9,4.2-5.4,7.4-9.5,6.9C34.5,48.6,30.9,44.7,30.9,39.4z"/>
	</g>
</g>
</svg>
