<?xml version="1.0" encoding="utf-8"?>
<!-- Generator: Adobe Illustrator 25.4.1, SVG Export Plug-In . SVG Version: 6.00 Build 0)  -->
<svg version="1.1" id="Capa_1" xmlns="http://www.w3.org/2000/svg" xmlns:xlink="http://www.w3.org/1999/xlink" x="0px" y="0px"
	 viewBox="0 0 80 80" style="enable-background:new 0 0 80 80;" xml:space="preserve">
<style type="text/css">
	.st0{fill:#9BB3DE;}
	.st1{fill:#FFFFFF;}
	.st2{fill:none;stroke:#FFFFFF;stroke-width:4.9299;stroke-miterlimit:10;}
</style>
<g>
	<path class="st0" d="M11.1,80h57.8C75,80,80,75,80,68.9V11.1C80,5,75,0,68.9,0L11.1,0C5,0,0,5,0,11.1l0,57.8C0,75,5,80,11.1,80z"/>
	<g>
		<path class="st1" d="M25.8,72.3h28.4c3.6,0,6.6-2.9,6.6-6.6v-24c0-3.6-2.9-6.6-6.6-6.6H25.8c-3.6,0-6.6,2.9-6.6,6.6v24
			C19.2,69.4,22.1,72.3,25.8,72.3z"/>
		<path class="st2" d="M54.4,26.4v-4.3c0-8-6.5-14.4-14.4-14.4h0c-8,0-14.4,6.5-14.4,14.4v14.4"/>
	</g>
</g>
</svg>
