<?xml version="1.0" encoding="utf-8"?>
<!-- Generator: Adobe Illustrator 26.5.0, SVG Export Plug-In . SVG Version: 6.00 Build 0)  -->
<svg version="1.1" id="Capa_1" xmlns="http://www.w3.org/2000/svg" xmlns:xlink="http://www.w3.org/1999/xlink" x="0px" y="0px"
	 viewBox="0 0 80 80" style="enable-background:new 0 0 80 80;" xml:space="preserve">
<style type="text/css">
	.st0{fill:#2B548E;}
	.st1{fill:#FFFFFF;}
	.st2{fill:#FFFFFF;stroke:#2B548E;stroke-width:0.75;stroke-miterlimit:10;}
</style>
<g>
	<path class="st0" d="M18.4,79.6h43.2c10,0,18-8.1,18-18V18.4c0-10-8.1-18-18-18H18.4c-10,0-18,8.1-18,18v43.2
		C0.4,71.6,8.4,79.6,18.4,79.6z"/>
	<path class="st1" d="M0.4,60.8v0.8c0,0.4,0,0.8,0.1,1.2h79.2c0-0.4,0.1-0.8,0.1-1.2v-0.8H0.4z"/>
	<path class="st2" d="M61.5,25.4c-0.6-2.1-2.1-3.9-4-5l-8.9-4.8c-4-2.2-9.1-0.7-11.3,3.3l-13.6,25c-2.2,4-0.7,9.1,3.3,11.3l8.9,4.8
		c0.9,0.5,1.8,0.8,2.8,0.9c1.2,0.2,2.4,0.1,3.6-0.3c2.1-0.6,3.9-2.1,5-4l2.8-5.2l0,0l10.8-19.8C61.9,29.8,62.1,27.5,61.5,25.4z
		 M46.6,19.3l8.9,4.8c1,0.5,1.7,1.4,2,2.5s0.2,2.2-0.3,3.2l-8.8,16.1l-16.2-8.8L40.9,21C42,18.9,44.6,18.2,46.6,19.3z M43.6,54.7
		c-0.5,1-1.4,1.7-2.5,2c-1.1,0.3-2.2,0.2-3.2-0.3l-8.9-4.8c-1-0.5-1.7-1.4-2-2.5c-0.3-1.1-0.2-2.2,0.3-3.2l2.8-5.2l16.2,8.8
		L43.6,54.7z"/>
	<g>
		<path class="st1" d="M52,32.7c1.7-3.1,0.7-7-2.4-8.7c-3.1-1.7-7-0.7-8.7,2.4c-2.1,3.7-1.3,9,0.2,12.6C45.2,38.3,49.8,36.5,52,32.7
			z"/>
		<circle class="st0" cx="46.5" cy="29.4" r="3.9"/>
	</g>
	<path class="st1" d="M21.8,56.5l-0.9-0.9c-0.3-0.3-0.3-0.8,0-1.1l0.9-0.9c0.3-0.3,0.8-0.3,1.1,0l0.9,0.9c0.3,0.3,0.3,0.8,0,1.1
		l-0.9,0.9C22.6,56.7,22.1,56.7,21.8,56.5z"/>
	<path class="st1" d="M14.8,53l-2-2c-0.7-0.7-0.7-1.7,0-2.4l2-2c0.7-0.7,1.7-0.7,2.4,0l2,2c0.7,0.7,0.7,1.7,0,2.4l-2,2
		C16.5,53.6,15.4,53.6,14.8,53z"/>
</g>
</svg>
