<?xml version="1.0" encoding="utf-8"?>
<!-- Generator: Adobe Illustrator 25.4.1, SVG Export Plug-In . SVG Version: 6.00 Build 0)  -->
<svg version="1.1" id="Capa_1" xmlns="http://www.w3.org/2000/svg" xmlns:xlink="http://www.w3.org/1999/xlink" x="0px" y="0px"
	 viewBox="0 0 80 80" style="enable-background:new 0 0 80 80;" xml:space="preserve">
<style type="text/css">
	.st0{fill:#D9ECFA;}
	.st1{fill:#8395A9;}
	.st2{fill:#FFFFFF;}
	.st3{fill:#B93930;}
</style>
<g>
	<path class="st0" d="M68.9,80H11.1C5,80,0,75,0,68.9V11.1C0,5,5,0,11.1,0h57.8C75,0,80,5,80,11.1v57.8C80,75,75,80,68.9,80z"/>
	<path class="st1" d="M6.2,60.3v4.4c0,4.8,4.2,8.6,9.4,8.6h48.8c5.2,0,9.4-3.9,9.4-8.6V35.4C49.3,39.7,26.4,48.3,6.2,60.3z"/>
	<g>
		<circle class="st2" cx="50.6" cy="35.7" r="13.5"/>
		<path class="st3" d="M69.3,35.7c0-10.3-8.4-18.7-18.7-18.7c-10.3,0-18.7,8.4-18.7,18.7h-0.2c0.8,9.4,4.9,18.5,12,27.3
			c0.5,0.7,1.1,1.4,1.7,2.1c0.4,0.4,0.7,0.9,1.1,1.3c1,1.1,2.1,2.3,3.2,3.4c0.1,0.1,0.3,0.1,0.5,0c1.3-1.2,2.5-2.3,3.6-3.5
			c0.4-0.4,0.9-0.9,1.3-1.3c0.6-0.7,1.3-1.3,1.8-2c8-9.1,12.2-18.2,12.5-27.3H69.3z M51.2,47.8c-7.2,0.4-13-5.5-12.7-12.7
			C38.8,29,43.8,24,50,23.7c7.2-0.4,13,5.5,12.7,12.7C62.3,42.5,57.3,47.5,51.2,47.8z"/>
	</g>
</g>
</svg>
