<?xml version="1.0" encoding="utf-8"?>
<!-- Generator: Adobe Illustrator 25.4.1, SVG Export Plug-In . SVG Version: 6.00 Build 0)  -->
<svg version="1.1" id="Capa_1" xmlns="http://www.w3.org/2000/svg" xmlns:xlink="http://www.w3.org/1999/xlink" x="0px" y="0px"
	 viewBox="0 0 80 80" style="enable-background:new 0 0 80 80;" xml:space="preserve">
<style type="text/css">
	.st0{fill:#35AD61;}
	.st1{fill:#197B43;}
	.st2{fill:none;stroke:#FFFFFF;stroke-width:2.9135;stroke-miterlimit:10;}
	.st3{fill:#FFFFFF;}
	.st4{fill:#B93930;}
</style>
<g>
	<path class="st0" d="M68.9,80H11.1C5,80,0,75,0,68.9V11.1C0,5,5,0,11.1,0h57.8C75,0,80,5,80,11.1v57.8C80,75,75,80,68.9,80z"/>
	<path class="st1" d="M72.3,35.4c-13.7-0.1-21.9,14.9-51.8,19C11.2,55.6,4.6,58.9,0,63v5.9C0,75,5,80,11.1,80h57.8
		C75,80,80,75,80,68.9V37C77.3,36,74.7,35.4,72.3,35.4z"/>
	<path class="st2" d="M15.5,20.3v40.4c0,5.7,6.8,8.5,10.9,4.5l23.4-47.6c4-4,10.9-1.1,10.9,4.5v32.2"/>
	<g>
		<circle class="st3" cx="15.5" cy="15.6" r="6.3"/>
		<path class="st4" d="M24.2,15.6c0-4.8-3.9-8.7-8.7-8.7c-4.8,0-8.7,3.9-8.7,8.7H6.8c0.4,4.3,2.3,8.6,5.5,12.7
			c0.3,0.3,0.5,0.6,0.8,1c0.2,0.2,0.3,0.4,0.5,0.6c0.5,0.5,1,1.1,1.5,1.6c0.1,0.1,0.2,0.1,0.2,0c0.6-0.5,1.1-1.1,1.7-1.6
			c0.2-0.2,0.4-0.4,0.6-0.6c0.3-0.3,0.6-0.6,0.9-0.9C22.2,24,24.1,19.8,24.2,15.6L24.2,15.6z M15.8,21.2c-3.3,0.2-6.1-2.6-5.9-5.9
			c0.1-2.8,2.5-5.2,5.3-5.3c3.3-0.2,6.1,2.6,5.9,5.9C21,18.7,18.7,21,15.8,21.2z"/>
	</g>
	<g>
		<circle class="st3" cx="60.8" cy="47.8" r="10.7"/>
		<path class="st4" d="M75.6,47.8C75.6,39.6,69,33,60.8,33C52.6,33,46,39.6,46,47.8h-0.1c0.6,7.4,3.8,14.6,9.5,21.7
			c0.4,0.5,0.9,1.1,1.3,1.6c0.3,0.3,0.6,0.7,0.9,1c0.8,0.9,1.7,1.8,2.5,2.7c0.1,0.1,0.3,0.1,0.4,0c1-0.9,1.9-1.8,2.8-2.8
			c0.3-0.4,0.7-0.7,1-1.1c0.5-0.5,1-1.1,1.5-1.6c6.3-7.2,9.7-14.4,9.9-21.6H75.6z M61.3,57.4c-5.7,0.3-10.3-4.4-10-10
			c0.2-4.9,4.2-8.8,9.1-9.1c5.7-0.3,10.3,4.4,10,10C70.1,53.2,66.2,57.1,61.3,57.4z"/>
	</g>
</g>
</svg>
