<?xml version="1.0" encoding="utf-8"?>
<!-- Generator: Adobe Illustrator 25.4.1, SVG Export Plug-In . SVG Version: 6.00 Build 0)  -->
<svg version="1.1" id="Capa_1" xmlns="http://www.w3.org/2000/svg" xmlns:xlink="http://www.w3.org/1999/xlink" x="0px" y="0px"
	 viewBox="0 0 80 80" style="enable-background:new 0 0 80 80;" xml:space="preserve">
<style type="text/css">
	.st0{fill:#B9BAB9;}
	.st1{fill:#8E8E8E;}
	.st2{fill:#66B977;}
</style>
<g>
	<path class="st0" d="M80,68.9V11.1C80,5,75,0,68.9,0H11.1C7.9,0,5.1,1.3,3,3.5L76.5,77C78.7,74.9,80,72.1,80,68.9z"/>
	<path class="st1" d="M3,3.5c-1.9,2-3,4.7-3,7.6v57.8C0,75,5,80,11.1,80h57.8c3,0,5.6-1.2,7.6-3L3,3.5z"/>
	<path class="st2" d="M60.3,36L25.5,16c-3.1-1.8-6.9,0.4-6.9,4v40.1c0,3.5,3.8,5.7,6.9,4L60.3,44C63.3,42.2,63.3,37.8,60.3,36z"/>
</g>
</svg>
